<svg xmlns="http://www.w3.org/2000/svg" viewBox="0 0 1427 383.4"><defs><style>.a{fill:#e50914;}</style></defs><title>Netflix_Logo_RGB</title><path class="a" d="M1289.05,533.68q30.09,2.31,60.1,5V185.84h-60.1ZM322.37,402.78,244.11,185.84H187V569.2q30-4.28,60.09-8.19V352.54l69.59,199.91q32.83-3.81,65.78-7.2V185.84H322.37ZM440.25,539.66q83.07-7.54,166.92-12.4V468.05q-53.58,3.09-106.83,7.3V385.71c23.3-.24,54-.95,81.15-.61V325.89c-21.71-.05-56.61.3-81.15.62V245.58H607.17V185.84H440.25ZM645.69,245.58h62.89V522.45q30-1.12,60.09-1.9v-275h62.89V185.84H645.69Zm224.4,273.36,60.09,0V382.22h81.46V323H930.18V245.58h107.66V185.84H870.09ZM1614,185.84h-66l-43.51,100.85-39.09-100.85h-65L1470.24,366,1394,542.83q31.65,3.09,63.16,6.58l44.36-102.79,43.92,113.31q34.33,4.41,68.49,9.26l.1,0-78.28-201.89Zm-477.55,0h-60.09V521.87q81.92,2.82,163.15,8.25V470.91q-51.39-3.44-103.06-5.83Z" transform="translate(-187 -185.8)"/></svg>